<?xml version="1.0" encoding="UTF-8" standalone="no"?>
<svg
   height="128px"
   viewBox="0 0 128 128"
   width="128px"
   version="1.1"
   id="svg35"
   sodipodi:docname="icon.svg"
   inkscape:version="1.4.4 (dcaf3e7d9e, 2026-05-05)"
   xmlns:inkscape="http://www.inkscape.org/namespaces/inkscape"
   xmlns:sodipodi="http://sodipodi.sourceforge.net/DTD/sodipodi-0.dtd"
   xmlns:xlink="http://www.w3.org/1999/xlink"
   xmlns="http://www.w3.org/2000/svg"
   xmlns:svg="http://www.w3.org/2000/svg">
  <defs
     id="defs35" />
  <sodipodi:namedview
     id="namedview35"
     pagecolor="#ffffff"
     bordercolor="#000000"
     borderopacity="0.25"
     inkscape:showpageshadow="2"
     inkscape:pageopacity="0.0"
     inkscape:pagecheckerboard="0"
     inkscape:deskcolor="#d1d1d1"
     inkscape:zoom="3.5686795"
     inkscape:cx="62.207884"
     inkscape:cy="78.460394"
     inkscape:window-width="1493"
     inkscape:window-height="901"
     inkscape:window-x="0"
     inkscape:window-y="0"
     inkscape:window-maximized="1"
     inkscape:current-layer="svg35"
     showguides="true" />
  <linearGradient
     id="a"
     gradientUnits="userSpaceOnUse"
     x1="100"
     x2="108"
     y1="83"
     y2="83"
     gradientTransform="matrix(1.203157,0,0,1.203157,-13.063141,-8.7932565)">
    <stop
       offset="0"
       stop-color="#f6f5f4"
       id="stop1" />
    <stop
       offset="0.5"
       stop-color="#f6f5f4"
       id="stop2" />
    <stop
       offset="1"
       stop-color="#c0bfbc"
       id="stop3" />
  </linearGradient>
  <linearGradient
     id="b"
     gradientUnits="userSpaceOnUse"
     x1="20"
     x2="108"
     y1="54"
     y2="54"
     gradientTransform="matrix(1.203157,0,0,1.203157,-13.063141,-8.7932565)">
    <stop
       offset="0"
       stop-color="#3584e4"
       id="stop4" />
    <stop
       offset="0.0227273"
       stop-color="#62a0ea"
       id="stop5" />
    <stop
       offset="0.0909091"
       stop-color="#3584e4"
       id="stop6" />
    <stop
       offset="1"
       stop-color="#3584e4"
       id="stop7" />
  </linearGradient>
  <linearGradient
     id="c"
     gradientUnits="userSpaceOnUse"
     x1="20"
     x2="108.099617"
     y1="49"
     y2="49"
     gradientTransform="matrix(1.203157,0,0,1.203157,-13.063141,-8.7932565)">
    <stop
       offset="0"
       stop-color="#62a0ea"
       id="stop8" />
    <stop
       offset="0.0227273"
       stop-color="#8bb9f0"
       id="stop9" />
    <stop
       offset="0.0909091"
       stop-color="#62a0ea"
       id="stop10" />
    <stop
       offset="1"
       stop-color="#62a0ea"
       id="stop11" />
  </linearGradient>
  <filter
     id="d"
     height="1"
     width="1"
     x="0"
     y="0">
    <feColorMatrix
       in="SourceGraphic"
       type="matrix"
       values="0 0 0 0 1 0 0 0 0 1 0 0 0 0 1 0 0 0 1 0"
       id="feColorMatrix11" />
  </filter>
  <mask
     id="e">
    <g
       filter="url(#d)"
       id="g11">
      <rect
         fill-opacity="0.1"
         height="128"
         width="128"
         id="rect11" />
    </g>
  </mask>
  <linearGradient
     id="f"
     gradientUnits="userSpaceOnUse">
    <stop
       offset="0"
       stop-opacity="0"
       id="stop12" />
    <stop
       offset="0.2"
       id="stop13" />
    <stop
       offset="0.8"
       stop-opacity="0.94902"
       id="stop14" />
    <stop
       offset="1"
       stop-opacity="0"
       id="stop15" />
  </linearGradient>
  <linearGradient
     id="g"
     gradientTransform="matrix(1.372549,0,0,1,-19.647058,-154)"
     x1="42"
     x2="93"
     xlink:href="#f"
     y1="273"
     y2="273" />
  <clipPath
     id="h">
    <rect
       height="152"
       width="192"
       id="rect15" />
  </clipPath>
  <mask
     id="i">
    <g
       filter="url(#d)"
       id="g16">
      <rect
         fill-opacity="0.1"
         height="128"
         width="128"
         id="rect16" />
    </g>
  </mask>
  <linearGradient
     id="j"
     gradientTransform="matrix(1.45098,0,0,1,-26.941177,-150)"
     x1="42"
     x2="93"
     xlink:href="#f"
     y1="273"
     y2="273" />
  <clipPath
     id="k">
    <rect
       height="152"
       width="192"
       id="rect17" />
  </clipPath>
  <mask
     id="l">
    <g
       filter="url(#d)"
       id="g18">
      <rect
         fill-opacity="0.1"
         height="128"
         width="128"
         id="rect18" />
    </g>
  </mask>
  <linearGradient
     id="m"
     gradientTransform="matrix(1.176471,0,0,1,-1.411765,-146)"
     x1="42"
     x2="93"
     xlink:href="#f"
     y1="273"
     y2="273" />
  <clipPath
     id="n">
    <rect
       height="152"
       width="192"
       id="rect19" />
  </clipPath>
  <mask
     id="o">
    <g
       filter="url(#d)"
       id="g20">
      <rect
         fill-opacity="0.1"
         height="128"
         width="128"
         id="rect20" />
    </g>
  </mask>
  <linearGradient
     id="p"
     gradientTransform="matrix(0.745098,0,0,1,18.705883,-158)"
     x1="42"
     x2="93"
     xlink:href="#f"
     y1="273"
     y2="273" />
  <clipPath
     id="q">
    <rect
       height="152"
       width="192"
       id="rect21" />
  </clipPath>
  <path
     d="m 20.625255,73.171811 h 86.627305 c 5.3155,0 9.62525,4.309747 9.62525,9.625257 v 32.334762 c 0,5.3155 -4.30977,9.62526 -9.62525,9.62526 H 20.625255 C 15.309745,124.75709 11,120.44733 11,115.13183 V 82.797068 c 0,-5.31551 4.309745,-9.625257 9.625255,-9.625257 z"
     fill="#1a5fb4"
     id="path22"
     sodipodi:nodetypes="sssssssss"
     style="stroke-width:1.20316" />
  <path
     d="m 23.031568,48.958278 v 73.392502 h 84.220992 c 5.33429,0 9.62525,-4.29106 9.62525,-9.62526 V 58.583527 c 0,-5.334301 -4.29096,-9.625249 -9.62525,-9.625249 z"
     fill="url(#a)"
     id="path23"
     style="fill:url(#a);stroke-width:1.20316"
     sodipodi:nodetypes="ccssssc" />
  <path
     d="m 11,10.457254 v 93.846256 h 96.25256 c 5.33429,0 9.62525,-4.29096 9.62525,-9.62527 V 20.08251 c 0,-5.334308 -4.29096,-9.625256 -9.62525,-9.625256 z m 0,0"
     fill="#1a5fb4"
     id="path24"
     style="stroke-width:1.20316" />
  <path
     d="M 11,10.457254 V 111.52242 c 0,-5.33428 4.290945,-9.62523 9.625255,-9.62523 h 86.627305 c 5.33429,0 9.62525,-4.290951 9.62525,-9.625262 V 10.457254 c 0,-5.3343085 -4.29096,-9.625254 -9.62525,-9.625254 H 20.625255 C 15.309745,0.832 11,5.1417446 11,10.457254 Z m 0,0"
     fill="url(#b)"
     id="path25"
     style="fill:url(#b);stroke-width:1.20316" />
  <path
     d="M 18.218941,20.08251 C 14.219385,20.08251 11,23.301896 11,27.301451 v 62.564162 c 0,-3.999557 3.303982,-6.40587 7.218941,-7.21894 h 2.406314 V 20.08251 Z m 0,0"
     fill="url(#c)"
     id="path26"
     style="fill:url(#c);stroke-width:1.20316" />
  <path
     d="M 20.625255,20.08251 H 117 V 82.646673 H 20.625255 Z m 0,0"
     fill="#62a0ea"
     id="path27"
     style="stroke-width:1.20316" />
  <path
     d="m 20.625255,104.30351 h 4.81263 c 3.985456,0 7.218939,3.23346 7.218939,7.21891 v 3.60941 c 0,3.98547 -3.233483,7.21895 -7.218939,7.21895 h -4.81263 c -3.985457,0 -7.218942,-3.23348 -7.218942,-7.21895 v -3.60941 c 0,-3.98545 3.233485,-7.21891 7.218942,-7.21891 z"
     fill="#f6f5f4"
     id="path28"
     sodipodi:nodetypes="sssssssss"
     style="stroke-width:1.20316" />
  <g
     clip-path="url(#h)"
     mask="url(#e)"
     transform="matrix(1.2031569,0,0,1.2031569,-20.282082,-34.457126)"
     id="g29">
    <path
       d="m 38,118 h 70 v 2 H 38 Z m 0,0"
       fill="url(#g)"
       id="path29"
       style="fill:url(#g)" />
  </g>
  <g
     clip-path="url(#k)"
     mask="url(#i)"
     transform="matrix(1.2031569,0,0,1.2031569,-20.282082,-34.457126)"
     id="g32">
    <path
       d="m 34,122 h 74 v 2 H 34 Z m 0,0"
       fill="url(#j)"
       id="path32"
       style="fill:url(#j)" />
  </g>
  <g
     clip-path="url(#n)"
     mask="url(#l)"
     transform="matrix(1.2031569,0,0,1.2031569,-20.282082,-34.457126)"
     id="g33">
    <path
       d="m 48,126 h 60 v 2 H 48 Z m 0,0"
       fill="url(#m)"
       id="path33"
       style="fill:url(#m)" />
  </g>
  <path
     d="m 34.404832,109.92171 h 12.104479 v 18.07805 l -6.052241,-6.9531 -6.052238,6.9531 z m 0,0"
     fill="url(#r)"
     id="path35"
     style="fill:#ed333b;fill-opacity:1;stroke-width:1.18437" />
  <text
     id="wordmark"
     x="60.171001"
     y="68.310364"
     fill="#ffffff"
     font-family="Inter, Geist, 'SF Pro Display', 'Segoe UI', Arial, sans-serif"
     font-size="22px"
     font-weight="750"
     letter-spacing="-0.962527"
     style="font-size:38.501px;stroke-width:1.20316">ne</text>
  <g
     id="globe"
     transform="matrix(1.2031569,0,0,1.2031569,40.928532,52.064864)"
     fill="none"
     stroke="#ffffff"
     stroke-width="3"
     stroke-linecap="round"
     stroke-linejoin="round">
    <circle
       cx="0"
       cy="0"
       r="14"
       id="circle14" />
    <path
       d="M -14,0 H 14"
       id="path15-3" />
    <path
       d="m 0,-14 c -4,5 -6,10 -6,14 0,4 2,9 6,14"
       id="path16-6" />
    <path
       d="M 0,-14 C 4,-9 6,-4 6,0 6,4 4,9 0,14"
       id="path17-7" />
    <path
       d="m -10,-9 c 6,3 14,3 20,0"
       opacity="0.75"
       id="path18-5" />
    <path
       d="M -10,9 C -4,6 4,6 10,9"
       opacity="0.75"
       id="path19-3" />
  </g>
</svg>
